<svg xmlns="http://www.w3.org/2000/svg" width="1394" height="257"><defs><linearGradient x1="50.043%" y1="3.832%" x2="49.957%" y2="100%" id="a"><stop stop-color="#08CEA4" offset="0%"/><stop stop-color="#C0FECF" stop-opacity="0" offset="100%"/></linearGradient></defs><g fill="url(#a)" fill-rule="evenodd"><rect x="190" width="4" height="137" rx="2"/><rect x="200" y="10" width="4" height="137" rx="2"/><rect x="180" y="10" width="4" height="137" rx="2"/><rect x="210" y="20" width="4" height="137" rx="2"/><rect x="170" y="20" width="4" height="137" rx="2"/><rect x="160" y="10" width="4" height="137" rx="2"/><rect x="150" y="20" width="4" height="137" rx="2"/><rect x="140" y="30" width="4" height="137" rx="2"/><rect x="130" y="40" width="4" height="137" rx="2"/><rect x="120" y="30" width="4" height="137" rx="2"/><rect x="110" y="40" width="4" height="137" rx="2"/><rect x="100" y="50" width="4" height="137" rx="2"/><rect x="90" y="60" width="4" height="137" rx="2"/><rect x="80" y="70" width="4" height="137" rx="2"/><rect x="70" y="60" width="4" height="137" rx="2"/><rect x="60" y="50" width="4" height="137" rx="2"/><rect x="50" y="60" width="4" height="137" rx="2"/><rect x="40" y="50" width="4" height="137" rx="2"/><rect x="30" y="40" width="4" height="137" rx="2"/><rect x="20" y="30" width="4" height="137" rx="2"/><rect x="10" y="40" width="4" height="137" rx="2"/><rect y="50" width="4" height="137" rx="2"/><rect x="410" y="20" width="4" height="137" rx="2"/><rect x="420" y="30" width="4" height="137" rx="2"/><rect x="400" y="20" width="4" height="137" rx="2"/><rect x="430" y="40" width="4" height="137" rx="2"/><rect x="390" y="30" width="4" height="137" rx="2"/><rect x="380" y="20" width="4" height="137" rx="2"/><rect x="370" y="30" width="4" height="137" rx="2"/><rect x="360" y="40" width="4" height="137" rx="2"/><rect x="350" y="40" width="4" height="137" rx="2"/><rect x="340" y="30" width="4" height="137" rx="2"/><rect x="330" y="40" width="4" height="137" rx="2"/><rect x="320" y="50" width="4" height="137" rx="2"/><rect x="310" y="50" width="4" height="137" rx="2"/><rect x="300" y="60" width="4" height="137" rx="2"/><rect x="290" y="50" width="4" height="137" rx="2"/><rect x="280" y="40" width="4" height="137" rx="2"/><rect x="270" y="50" width="4" height="137" rx="2"/><rect x="260" y="40" width="4" height="137" rx="2"/><rect x="250" y="30" width="4" height="137" rx="2"/><rect x="240" y="30" width="4" height="137" rx="2"/><rect x="610" y="50" width="4" height="137" rx="2"/><rect x="620" y="50" width="4" height="137" rx="2"/><rect x="600" y="50" width="4" height="137" rx="2"/><rect x="630" y="60" width="4" height="137" rx="2"/><rect x="590" y="50" width="4" height="137" rx="2"/><rect x="580" y="41" width="4" height="137" rx="2"/><rect x="570" y="50" width="4" height="137" rx="2"/><rect x="560" y="60" width="4" height="137" rx="2"/><rect x="550" y="60" width="4" height="137" rx="2"/><rect x="540" y="50" width="4" height="137" rx="2"/><rect x="530" y="60" width="4" height="137" rx="2"/><rect x="520" y="70" width="4" height="137" rx="2"/><rect x="510" y="70" width="4" height="137" rx="2"/><rect x="500" y="80" width="4" height="137" rx="2"/><rect x="490" y="70" width="4" height="137" rx="2"/><rect x="480" y="60" width="4" height="137" rx="2"/><rect x="470" y="70" width="4" height="137" rx="2"/><rect x="460" y="60" width="4" height="137" rx="2"/><rect x="790" y="60" width="4" height="137" rx="2"/><rect x="800" y="60" width="4" height="137" rx="2"/><rect x="780" y="50" width="4" height="137" rx="2"/><rect x="810" y="60" width="4" height="137" rx="2"/><rect x="770" y="50" width="4" height="137" rx="2"/><rect x="760" y="41" width="4" height="137" rx="2"/><rect x="750" y="50" width="4" height="137" rx="2"/><rect x="740" y="60" width="4" height="137" rx="2"/><rect x="730" y="60" width="4" height="137" rx="2"/><rect x="720" y="50" width="4" height="137" rx="2"/><rect x="710" y="60" width="4" height="137" rx="2"/><rect x="700" y="70" width="4" height="137" rx="2"/><rect x="690" y="70" width="4" height="137" rx="2"/><rect x="680" y="80" width="4" height="137" rx="2"/><rect x="670" y="70" width="4" height="137" rx="2"/><rect x="660" y="60" width="4" height="137" rx="2"/><rect x="650" y="70" width="4" height="137" rx="2"/><rect x="640" y="60" width="4" height="137" rx="2"/><rect x="970" y="80" width="4" height="137" rx="2"/><rect x="980" y="80" width="4" height="137" rx="2"/><rect x="960" y="80" width="4" height="137" rx="2"/><rect x="990" y="90" width="4" height="137" rx="2"/><rect x="950" y="80" width="4" height="137" rx="2"/><rect x="940" y="71" width="4" height="137" rx="2"/><rect x="930" y="60" width="4" height="137" rx="2"/><rect x="920" y="70" width="4" height="137" rx="2"/><rect x="910" y="70" width="4" height="137" rx="2"/><rect x="900" y="60" width="4" height="137" rx="2"/><rect x="890" y="70" width="4" height="137" rx="2"/><rect x="880" y="80" width="4" height="137" rx="2"/><rect x="870" y="80" width="4" height="137" rx="2"/><rect x="860" y="90" width="4" height="137" rx="2"/><rect x="850" y="80" width="4" height="137" rx="2"/><rect x="840" y="70" width="4" height="137" rx="2"/><rect x="830" y="80" width="4" height="137" rx="2"/><rect x="820" y="70" width="4" height="137" rx="2"/><rect x="450" y="50" width="4" height="137" rx="2"/><rect x="440" y="50" width="4" height="137" rx="2"/><rect x="1010" y="80" width="4" height="137" rx="2"/><rect x="1020" y="70" width="4" height="137" rx="2"/><rect x="1000" y="80" width="4" height="137" rx="2"/><rect x="1030" y="80" width="4" height="137" rx="2"/><rect x="1190" y="90" width="4" height="137" rx="2"/><rect x="1180" y="81" width="4" height="137" rx="2"/><rect x="1170" y="90" width="4" height="137" rx="2"/><rect x="1160" y="100" width="4" height="137" rx="2"/><rect x="1150" y="100" width="4" height="137" rx="2"/><rect x="1140" y="90" width="4" height="137" rx="2"/><rect x="1130" y="100" width="4" height="137" rx="2"/><rect x="1120" y="110" width="4" height="137" rx="2"/><rect x="1110" y="110" width="4" height="137" rx="2"/><rect x="1270" y="60" width="4" height="137" rx="2"/><rect x="1260" y="51" width="4" height="137" rx="2"/><rect x="1250" y="60" width="4" height="137" rx="2"/><rect x="1240" y="70" width="4" height="137" rx="2"/><rect x="1230" y="70" width="4" height="137" rx="2"/><rect x="1220" y="60" width="4" height="137" rx="2"/><rect x="1210" y="70" width="4" height="137" rx="2"/><rect x="1200" y="80" width="4" height="137" rx="2"/><rect x="1190" y="80" width="4" height="137" rx="2"/><rect x="1360" y="50" width="4" height="137" rx="2"/><rect x="1350" y="41" width="4" height="137" rx="2"/><rect x="1340" y="50" width="4" height="137" rx="2"/><rect x="1330" y="60" width="4" height="137" rx="2"/><rect x="1320" y="60" width="4" height="137" rx="2"/><rect x="1310" y="50" width="4" height="137" rx="2"/><rect x="1300" y="60" width="4" height="137" rx="2"/><rect x="1290" y="70" width="4" height="137" rx="2"/><rect x="1280" y="70" width="4" height="137" rx="2"/><rect x="1390" y="40" width="4" height="137" rx="2"/><rect x="1380" y="50" width="4" height="137" rx="2"/><rect x="1370" y="40" width="4" height="137" rx="2"/><rect x="1100" y="120" width="4" height="137" rx="2"/><rect x="1090" y="110" width="4" height="137" rx="2"/><rect x="1080" y="100" width="4" height="137" rx="2"/><rect x="1070" y="110" width="4" height="137" rx="2"/><rect x="1060" y="100" width="4" height="137" rx="2"/><rect x="1050" y="90" width="4" height="137" rx="2"/><rect x="1040" y="90" width="4" height="137" rx="2"/><rect x="230" y="20" width="4" height="137" rx="2"/><rect x="220" y="30" width="4" height="137" rx="2"/></g></svg>