<svg xmlns="http://www.w3.org/2000/svg" viewBox="0 0 32 32"><path fill="#b5b5b5" d="M26 24.237V27a1 1 0 01-1 1H6a1 1 0 01-1-1v-2.763a1.677 1.677 0 01.914-1.407l5.134-2.285A4.892 4.892 0 0015.158 23h.685a4.892 4.892 0 004.108-2.455l5.135 2.285A1.677 1.677 0 0126 24.237zM7.91 18.024a16.234 16.234 0 004.711 1.193A2.893 2.893 0 0015.157 21h.686a2.894 2.894 0 002.534-1.779 16.827 16.827 0 004.398-1.06.992.992 0 00.481-1.457C20.522 12.755 23.57 5 18 5c-3-3-8-1-9 3-.836 3.342-.136 5.608-1.568 8.705a.993.993 0 00.477 1.32z"/></svg>